<svg xmlns="http://www.w3.org/2000/svg" xmlns:xlink="http://www.w3.org/1999/xlink" id="wave" version="1.1" viewBox="0 0 1440 130" style="transform:rotate(0deg);transition:.3s"><defs><linearGradient id="sw-gradient-0" x1="0" x2="0" y1="1" y2="0"><stop offset="0%" stop-color="rgba(233, 69, 96, 1)"/><stop offset="100%" stop-color="rgba(255, 179, 11, 1)"/></linearGradient></defs><path style="transform:translate(0,0);opacity:1" fill="url(#sw-gradient-0)" d="M0,104L48,93.2C96,82,192,61,288,43.3C384,26,480,13,576,19.5C672,26,768,52,864,52C960,52,1056,26,1152,28.2C1248,30,1344,61,1440,60.7C1536,61,1632,30,1728,15.2C1824,0,1920,0,2016,2.2C2112,4,2208,9,2304,23.8C2400,39,2496,65,2592,82.3C2688,100,2784,108,2880,108.3C2976,108,3072,100,3168,95.3C3264,91,3360,91,3456,88.8C3552,87,3648,82,3744,78C3840,74,3936,69,4032,67.2C4128,65,4224,65,4320,69.3C4416,74,4512,82,4608,84.5C4704,87,4800,82,4896,86.7C4992,91,5088,104,5184,110.5C5280,117,5376,117,5472,101.8C5568,87,5664,56,5760,47.7C5856,39,5952,52,6048,52C6144,52,6240,39,6336,28.2C6432,17,6528,9,6624,23.8C6720,39,6816,78,6864,97.5L6912,117L6912,130L6864,130C6816,130,6720,130,6624,130C6528,130,6432,130,6336,130C6240,130,6144,130,6048,130C5952,130,5856,130,5760,130C5664,130,5568,130,5472,130C5376,130,5280,130,5184,130C5088,130,4992,130,4896,130C4800,130,4704,130,4608,130C4512,130,4416,130,4320,130C4224,130,4128,130,4032,130C3936,130,3840,130,3744,130C3648,130,3552,130,3456,130C3360,130,3264,130,3168,130C3072,130,2976,130,2880,130C2784,130,2688,130,2592,130C2496,130,2400,130,2304,130C2208,130,2112,130,2016,130C1920,130,1824,130,1728,130C1632,130,1536,130,1440,130C1344,130,1248,130,1152,130C1056,130,960,130,864,130C768,130,672,130,576,130C480,130,384,130,288,130C192,130,96,130,48,130L0,130Z"/></svg>