<svg xmlns="http://www.w3.org/2000/svg" xmlns:xlink="http://www.w3.org/1999/xlink" id="wave" version="1.1" viewBox="0 0 1440 130" style="transform:rotate(0deg);transition:.3s"><defs><linearGradient id="sw-gradient-0" x1="0" x2="0" y1="1" y2="0"><stop offset="0%" stop-color="rgba(233, 69, 96, 1)"/><stop offset="100%" stop-color="rgba(127, 72, 217, 1)"/></linearGradient></defs><path style="transform:translate(0,0);opacity:1" fill="url(#sw-gradient-0)" d="M0,0L30,6.5C60,13,120,26,180,32.5C240,39,300,39,360,32.5C420,26,480,13,540,13C600,13,660,26,720,26C780,26,840,13,900,21.7C960,30,1020,61,1080,80.2C1140,100,1200,108,1260,101.8C1320,95,1380,74,1440,62.8C1500,52,1560,52,1620,58.5C1680,65,1740,78,1800,69.3C1860,61,1920,30,1980,32.5C2040,35,2100,69,2160,80.2C2220,91,2280,78,2340,73.7C2400,69,2460,74,2520,75.8C2580,78,2640,78,2700,78C2760,78,2820,78,2880,65C2940,52,3000,26,3060,17.3C3120,9,3180,17,3240,17.3C3300,17,3360,9,3420,8.7C3480,9,3540,17,3600,17.3C3660,17,3720,9,3780,13C3840,17,3900,35,3960,54.2C4020,74,4080,95,4140,101.8C4200,108,4260,100,4290,95.3L4320,91L4320,130L4290,130C4260,130,4200,130,4140,130C4080,130,4020,130,3960,130C3900,130,3840,130,3780,130C3720,130,3660,130,3600,130C3540,130,3480,130,3420,130C3360,130,3300,130,3240,130C3180,130,3120,130,3060,130C3000,130,2940,130,2880,130C2820,130,2760,130,2700,130C2640,130,2580,130,2520,130C2460,130,2400,130,2340,130C2280,130,2220,130,2160,130C2100,130,2040,130,1980,130C1920,130,1860,130,1800,130C1740,130,1680,130,1620,130C1560,130,1500,130,1440,130C1380,130,1320,130,1260,130C1200,130,1140,130,1080,130C1020,130,960,130,900,130C840,130,780,130,720,130C660,130,600,130,540,130C480,130,420,130,360,130C300,130,240,130,180,130C120,130,60,130,30,130L0,130Z"/></svg>